<svg xmlns="http://www.w3.org/2000/svg" xmlns:xlink="http://www.w3.org/1999/xlink" width="565" zoomAndPan="magnify" viewBox="0 0 423.75 30.750001" height="41" preserveAspectRatio="xMidYMid meet" version="1.0"><defs><g/><clipPath id="632f30631b"><path d="M 1.585938 16 L 200 16 L 200 18 L 1.585938 18 Z M 1.585938 16 " clip-rule="nonzero"/></clipPath><clipPath id="53bb3cafbe"><path d="M 223 16 L 421.917969 16 L 421.917969 18 L 223 18 Z M 223 16 " clip-rule="nonzero"/></clipPath></defs><g fill="#000000" fill-opacity="1"><g transform="translate(204.487459, 20.593773)"><g><path d="M 7.25 -3.703125 C 7.25 -4.429688 6.988281 -5.054688 6.46875 -5.578125 C 5.945312 -6.109375 5.316406 -6.375 4.578125 -6.375 C 3.847656 -6.375 3.222656 -6.109375 2.703125 -5.578125 C 2.179688 -5.054688 1.921875 -4.429688 1.921875 -3.703125 C 1.921875 -2.984375 2.179688 -2.359375 2.703125 -1.828125 C 3.222656 -1.304688 3.847656 -1.046875 4.578125 -1.046875 C 5.316406 -1.046875 5.945312 -1.304688 6.46875 -1.828125 C 6.988281 -2.359375 7.25 -2.984375 7.25 -3.703125 Z M 8.421875 -3.703125 C 8.421875 -2.628906 8.046875 -1.726562 7.296875 -1 C 6.535156 -0.257812 5.628906 0.109375 4.578125 0.109375 C 3.535156 0.109375 2.640625 -0.257812 1.890625 -1 C 1.128906 -1.726562 0.75 -2.628906 0.75 -3.703125 C 0.75 -4.753906 1.128906 -5.660156 1.890625 -6.421875 C 2.628906 -7.160156 3.523438 -7.53125 4.578125 -7.53125 C 5.640625 -7.53125 6.546875 -7.160156 7.296875 -6.421875 C 8.046875 -5.660156 8.421875 -4.753906 8.421875 -3.703125 Z M 8.421875 -3.703125 "/></g></g></g><g fill="#000000" fill-opacity="1"><g transform="translate(213.6491, 20.593773)"><g><path d="M 5.015625 -5.8125 C 4.753906 -6.0625 4.46875 -6.1875 4.15625 -6.1875 C 3.851562 -6.1875 3.597656 -6.101562 3.390625 -5.9375 C 3.160156 -5.757812 2.972656 -5.546875 2.828125 -5.296875 C 2.554688 -4.804688 2.421875 -4.265625 2.421875 -3.671875 L 2.421875 0 L 1.25 0 L 1.25 -7.328125 L 2.421875 -7.328125 L 2.421875 -5.8125 L 2.46875 -6.125 C 2.851562 -7.03125 3.457031 -7.484375 4.28125 -7.484375 C 4.539062 -7.484375 4.785156 -7.429688 5.015625 -7.328125 Z M 5.015625 -5.8125 "/></g></g></g><g clip-path="url(#632f30631b)"><path stroke-linecap="butt" transform="matrix(0.743952, 0, 0, 0.743952, 1.584671, 16.055609)" fill="none" stroke-linejoin="miter" d="M 0.00170296 1.001641 L 264.557092 1.001641 " stroke="#312117" stroke-width="2" stroke-opacity="1" stroke-miterlimit="4"/></g><g clip-path="url(#53bb3cafbe)"><path stroke-linecap="butt" transform="matrix(0.743952, 0, 0, 0.743952, 224.611482, 16.055609)" fill="none" stroke-linejoin="miter" d="M 0.00241795 1.001641 L 264.983111 1.001641 " stroke="#312117" stroke-width="2" stroke-opacity="1" stroke-miterlimit="4"/></g></svg>