<svg xmlns="http://www.w3.org/2000/svg" xmlns:xlink="http://www.w3.org/1999/xlink" width="127" zoomAndPan="magnify" viewBox="0 0 95.25 95.249999" height="127" preserveAspectRatio="xMidYMid meet" version="1.0"><defs><clipPath id="f7987f1bb8"><path d="M 5.351562 5.351562 L 88.714844 5.351562 L 88.714844 88.714844 L 5.351562 88.714844 Z M 5.351562 5.351562 " clip-rule="nonzero"/></clipPath><clipPath id="3b26a8ba84"><path d="M 0 0 L 94.503906 0 L 94.503906 94.503906 L 0 94.503906 Z M 0 0 " clip-rule="nonzero"/></clipPath></defs><g clip-path="url(#f7987f1bb8)"><path fill="#3d2413" d="M 47.171875 5.347656 C 24.074219 5.347656 5.347656 24.074219 5.347656 47.171875 C 5.347656 70.269531 24.074219 88.996094 47.171875 88.996094 C 70.269531 88.996094 88.996094 70.269531 88.996094 47.171875 C 88.996094 24.074219 70.269531 5.347656 47.171875 5.347656 Z M 47.171875 17.058594 C 55.488281 17.058594 62.230469 23.800781 62.230469 32.117188 C 62.230469 40.433594 55.488281 47.171875 47.171875 47.171875 C 38.855469 47.171875 32.113281 40.429688 32.113281 32.117188 C 32.113281 23.800781 38.855469 17.058594 47.171875 17.058594 Z M 47.171875 78.960938 C 36.480469 78.960938 27.046875 73.667969 21.285156 65.578125 C 27.046875 57.484375 36.480469 52.195312 47.171875 52.195312 C 57.863281 52.195312 67.296875 57.484375 73.058594 65.578125 C 67.296875 73.667969 57.863281 78.960938 47.171875 78.960938 Z M 47.171875 78.960938 " fill-opacity="1" fill-rule="nonzero"/></g><g clip-path="url(#3b26a8ba84)"><path fill="#3d2413" d="M 92.910156 49.914062 C 92.167969 49.863281 91.601562 49.226562 91.625 48.507812 C 91.648438 47.789062 92.253906 47.1875 93.007812 47.1875 C 93.757812 47.1875 94.367188 47.808594 94.339844 48.601562 C 94.308594 49.390625 93.65625 49.96875 92.910156 49.914062 Z M 92.167969 55.347656 C 91.441406 55.199219 90.972656 54.492188 91.09375 53.789062 C 91.210938 53.082031 91.890625 52.574219 92.628906 52.675781 C 93.367188 52.777344 93.882812 53.472656 93.75 54.242188 C 93.613281 55.015625 92.898438 55.496094 92.167969 55.347656 Z M 90.734375 60.621094 C 90.03125 60.378906 89.652344 59.621094 89.863281 58.9375 C 90.074219 58.253906 90.8125 57.835938 91.527344 58.03125 C 92.242188 58.230469 92.664062 58.980469 92.4375 59.726562 C 92.207031 60.472656 91.4375 60.859375 90.734375 60.621094 Z M 88.65625 65.683594 C 87.984375 65.359375 87.703125 64.558594 87.996094 63.902344 C 88.289062 63.246094 89.074219 62.921875 89.761719 63.207031 C 90.449219 63.488281 90.773438 64.289062 90.457031 65 C 90.140625 65.714844 89.324219 66.007812 88.65625 65.683594 Z M 85.988281 70.480469 C 85.359375 70.082031 85.167969 69.25 85.539062 68.628906 C 85.90625 68.011719 86.726562 67.78125 87.378906 68.140625 C 88.03125 68.503906 88.261719 69.339844 87.863281 70.011719 C 87.464844 70.683594 86.621094 70.878906 85.988281 70.480469 Z M 82.789062 74.960938 C 82.207031 74.492188 82.109375 73.644531 82.546875 73.066406 C 82.984375 72.488281 83.828125 72.351562 84.4375 72.785156 C 85.046875 73.222656 85.183594 74.078125 84.710938 74.703125 C 84.238281 75.328125 83.375 75.429688 82.789062 74.960938 Z M 79.113281 79.070312 C 78.582031 78.539062 78.578125 77.683594 79.078125 77.15625 C 79.578125 76.628906 80.429688 76.585938 80.988281 77.085938 C 81.546875 77.585938 81.589844 78.453125 81.050781 79.023438 C 80.511719 79.59375 79.640625 79.597656 79.113281 79.070312 Z M 75.007812 82.753906 C 74.539062 82.167969 74.628906 81.316406 75.183594 80.847656 C 75.734375 80.378906 76.589844 80.425781 77.089844 80.984375 C 77.589844 81.542969 77.535156 82.410156 76.9375 82.917969 C 76.339844 83.425781 75.476562 83.335938 75.007812 82.753906 Z M 70.53125 85.957031 C 70.128906 85.324219 70.3125 84.492188 70.914062 84.085938 C 71.511719 83.683594 72.355469 83.824219 72.789062 84.433594 C 73.222656 85.042969 73.074219 85.894531 72.425781 86.332031 C 71.777344 86.769531 70.929688 86.585938 70.53125 85.957031 Z M 65.734375 88.625 C 65.410156 87.957031 65.6875 87.152344 66.324219 86.820312 C 66.964844 86.488281 67.78125 86.722656 68.144531 87.375 C 68.507812 88.027344 68.261719 88.855469 67.570312 89.214844 C 66.875 89.574219 66.058594 89.296875 65.734375 88.625 Z M 60.671875 90.710938 C 60.433594 90.007812 60.800781 89.246094 61.472656 88.992188 C 62.144531 88.738281 62.925781 89.066406 63.207031 89.753906 C 63.492188 90.441406 63.152344 91.238281 62.421875 91.511719 C 61.691406 91.785156 60.914062 91.414062 60.671875 90.710938 Z M 55.402344 92.152344 C 55.25 91.425781 55.714844 90.714844 56.410156 90.550781 C 57.105469 90.382812 57.835938 90.804688 58.035156 91.523438 C 58.230469 92.238281 57.796875 92.984375 57.035156 93.167969 C 56.277344 93.347656 55.550781 92.878906 55.402344 92.152344 Z M 49.972656 92.902344 C 49.917969 92.15625 50.476562 91.511719 51.1875 91.441406 C 51.898438 91.367188 52.574219 91.882812 52.675781 92.621094 C 52.777344 93.359375 52.25 94.046875 51.464844 94.128906 C 50.683594 94.210938 50.023438 93.648438 49.972656 92.902344 Z M 44.457031 92.90625 C 44.507812 92.160156 45.148438 91.597656 45.867188 91.621094 C 46.582031 91.640625 47.1875 92.246094 47.1875 93 C 47.1875 93.753906 46.5625 94.363281 45.773438 94.332031 C 44.980469 94.304688 44.40625 93.652344 44.457031 92.90625 Z M 39.027344 92.164062 C 39.175781 91.4375 39.878906 90.964844 40.585938 91.085938 C 41.289062 91.207031 41.800781 91.882812 41.699219 92.621094 C 41.597656 93.359375 40.902344 93.875 40.128906 93.742188 C 39.359375 93.609375 38.875 92.890625 39.027344 92.164062 Z M 33.75 90.726562 C 33.992188 90.023438 34.75 89.648438 35.433594 89.859375 C 36.117188 90.070312 36.535156 90.804688 36.339844 91.519531 C 36.144531 92.238281 35.390625 92.660156 34.644531 92.429688 C 33.898438 92.203125 33.511719 91.429688 33.75 90.726562 Z M 28.6875 88.648438 C 29.011719 87.976562 29.8125 87.695312 30.46875 87.988281 C 31.125 88.28125 31.449219 89.066406 31.164062 89.753906 C 30.882812 90.441406 30.082031 90.769531 29.371094 90.449219 C 28.65625 90.132812 28.363281 89.320312 28.6875 88.648438 Z M 23.890625 85.984375 C 24.289062 85.351562 25.121094 85.164062 25.738281 85.535156 C 26.359375 85.902344 26.589844 86.722656 26.230469 87.375 C 25.867188 88.023438 25.03125 88.257812 24.359375 87.859375 C 23.6875 87.460938 23.492188 86.617188 23.890625 85.984375 Z M 19.410156 82.785156 C 19.878906 82.203125 20.726562 82.105469 21.304688 82.542969 C 21.882812 82.980469 22.019531 83.824219 21.582031 84.433594 C 21.148438 85.042969 20.292969 85.175781 19.667969 84.707031 C 19.042969 84.234375 18.941406 83.371094 19.410156 82.785156 Z M 15.300781 79.109375 C 15.828125 78.578125 16.683594 78.574219 17.210938 79.074219 C 17.738281 79.574219 17.785156 80.425781 17.285156 80.984375 C 16.785156 81.542969 15.914062 81.585938 15.347656 81.046875 C 14.777344 80.507812 14.769531 79.636719 15.300781 79.109375 Z M 11.617188 75.003906 C 12.199219 74.535156 13.050781 74.625 13.519531 75.179688 C 13.988281 75.730469 13.941406 76.585938 13.382812 77.085938 C 12.824219 77.585938 11.957031 77.53125 11.453125 76.933594 C 10.945312 76.335938 11.03125 75.472656 11.617188 75.003906 Z M 8.414062 70.527344 C 9.042969 70.128906 9.875 70.3125 10.28125 70.910156 C 10.6875 71.511719 10.542969 72.351562 9.9375 72.785156 C 9.328125 73.222656 8.472656 73.074219 8.035156 72.425781 C 7.597656 71.777344 7.78125 70.925781 8.414062 70.527344 Z M 5.742188 65.730469 C 6.414062 65.410156 7.214844 65.683594 7.546875 66.324219 C 7.878906 66.960938 7.644531 67.78125 6.992188 68.140625 C 6.34375 68.503906 5.511719 68.261719 5.152344 67.566406 C 4.792969 66.875 5.070312 66.054688 5.742188 65.730469 Z M 3.65625 60.671875 C 4.359375 60.429688 5.121094 60.800781 5.375 61.472656 C 5.628906 62.140625 5.300781 62.921875 4.613281 63.207031 C 3.925781 63.488281 3.132812 63.152344 2.855469 62.421875 C 2.582031 61.691406 2.957031 60.914062 3.65625 60.671875 Z M 2.214844 55.398438 C 2.941406 55.25 3.652344 55.714844 3.816406 56.40625 C 3.984375 57.101562 3.5625 57.835938 2.84375 58.03125 C 2.128906 58.226562 1.382812 57.792969 1.199219 57.035156 C 1.019531 56.277344 1.484375 55.550781 2.214844 55.398438 Z M 1.464844 49.96875 C 2.210938 49.917969 2.855469 50.476562 2.925781 51.1875 C 3 51.898438 2.484375 52.574219 1.746094 52.675781 C 1.007812 52.777344 0.320312 52.246094 0.238281 51.464844 C 0.15625 50.683594 0.71875 50.023438 1.464844 49.96875 Z M 1.460938 44.457031 C 2.207031 44.507812 2.769531 45.148438 2.746094 45.863281 C 2.722656 46.582031 2.121094 47.1875 1.367188 47.1875 C 0.613281 47.1875 0.00390625 46.5625 0.0351562 45.769531 C 0.0625 44.980469 0.714844 44.40625 1.460938 44.457031 Z M 2.203125 39.023438 C 2.929688 39.175781 3.398438 39.878906 3.28125 40.585938 C 3.160156 41.289062 2.484375 41.796875 1.746094 41.695312 C 1.007812 41.59375 0.492188 40.902344 0.625 40.128906 C 0.757812 39.359375 1.476562 38.875 2.203125 39.023438 Z M 3.640625 33.75 C 4.34375 33.992188 4.71875 34.75 4.507812 35.433594 C 4.296875 36.117188 3.5625 36.535156 2.84375 36.339844 C 2.128906 36.144531 1.707031 35.390625 1.9375 34.644531 C 2.164062 33.898438 2.9375 33.511719 3.640625 33.75 Z M 5.71875 28.6875 C 6.390625 29.011719 6.671875 29.8125 6.378906 30.46875 C 6.085938 31.125 5.300781 31.449219 4.613281 31.164062 C 3.925781 30.882812 3.597656 30.082031 3.917969 29.371094 C 4.234375 28.65625 5.046875 28.367188 5.71875 28.6875 Z M 8.382812 23.890625 C 9.015625 24.289062 9.203125 25.121094 8.835938 25.742188 C 8.464844 26.363281 7.644531 26.59375 6.996094 26.230469 C 6.34375 25.867188 6.109375 25.03125 6.507812 24.359375 C 6.90625 23.6875 7.753906 23.492188 8.382812 23.890625 Z M 11.582031 19.410156 C 12.167969 19.878906 12.261719 20.726562 11.824219 21.304688 C 11.386719 21.882812 10.542969 22.019531 9.9375 21.585938 C 9.328125 21.148438 9.191406 20.292969 9.664062 19.667969 C 10.136719 19.042969 10.996094 18.941406 11.582031 19.410156 Z M 15.261719 15.300781 C 15.792969 15.832031 15.792969 16.6875 15.292969 17.214844 C 14.796875 17.742188 13.941406 17.785156 13.382812 17.285156 C 12.824219 16.785156 12.785156 15.917969 13.324219 15.347656 C 13.859375 14.78125 14.730469 14.773438 15.261719 15.300781 Z M 19.367188 11.621094 C 19.835938 12.203125 19.742188 13.054688 19.191406 13.523438 C 18.636719 13.992188 17.785156 13.945312 17.285156 13.386719 C 16.785156 12.828125 16.839844 11.960938 17.433594 11.453125 C 18.03125 10.949219 18.898438 11.035156 19.367188 11.621094 Z M 23.84375 8.417969 C 24.242188 9.046875 24.058594 9.878906 23.460938 10.285156 C 22.859375 10.6875 22.019531 10.546875 21.582031 9.9375 C 21.148438 9.332031 21.296875 8.476562 21.945312 8.039062 C 22.59375 7.601562 23.441406 7.785156 23.84375 8.417969 Z M 28.640625 5.746094 C 28.960938 6.417969 28.6875 7.21875 28.046875 7.550781 C 27.410156 7.886719 26.589844 7.648438 26.230469 7 C 25.867188 6.347656 26.109375 5.515625 26.804688 5.15625 C 27.496094 4.796875 28.316406 5.074219 28.640625 5.746094 Z M 33.699219 3.664062 C 33.941406 4.367188 33.570312 5.128906 32.898438 5.378906 C 32.230469 5.632812 31.449219 5.304688 31.164062 4.617188 C 30.882812 3.929688 31.222656 3.136719 31.949219 2.859375 C 32.679688 2.585938 33.460938 2.960938 33.699219 3.664062 Z M 38.972656 2.21875 C 39.121094 2.945312 38.660156 3.65625 37.964844 3.824219 C 37.269531 3.988281 36.535156 3.566406 36.339844 2.851562 C 36.144531 2.132812 36.578125 1.386719 37.335938 1.207031 C 38.097656 1.023438 38.820312 1.492188 38.972656 2.21875 Z M 44.402344 1.46875 C 44.453125 2.214844 43.898438 2.859375 43.1875 2.929688 C 42.472656 3.003906 41.800781 2.488281 41.699219 1.75 C 41.597656 1.011719 42.125 0.328125 42.90625 0.242188 C 43.6875 0.160156 44.347656 0.722656 44.402344 1.46875 Z M 49.917969 1.464844 C 49.863281 2.210938 49.226562 2.773438 48.507812 2.753906 C 47.789062 2.730469 47.1875 2.125 47.1875 1.371094 C 47.1875 0.621094 47.808594 0.0117188 48.601562 0.0390625 C 49.390625 0.0703125 49.96875 0.722656 49.917969 1.464844 Z M 55.347656 2.207031 C 55.199219 2.9375 54.492188 3.40625 53.789062 3.285156 C 53.082031 3.164062 52.574219 2.488281 52.675781 1.75 C 52.777344 1.011719 53.472656 0.496094 54.242188 0.628906 C 55.015625 0.761719 55.496094 1.480469 55.347656 2.207031 Z M 60.621094 3.644531 C 60.382812 4.347656 59.621094 4.722656 58.9375 4.515625 C 58.253906 4.304688 57.835938 3.566406 58.035156 2.851562 C 58.230469 2.132812 58.984375 1.714844 59.726562 1.941406 C 60.472656 2.171875 60.859375 2.941406 60.621094 3.644531 Z M 65.683594 5.722656 C 65.359375 6.394531 64.558594 6.675781 63.90625 6.382812 C 63.25 6.089844 62.925781 5.304688 63.207031 4.617188 C 63.492188 3.929688 64.289062 3.605469 65.003906 3.921875 C 65.714844 4.238281 66.007812 5.050781 65.683594 5.722656 Z M 70.484375 8.386719 C 70.082031 9.019531 69.253906 9.207031 68.632812 8.839844 C 68.011719 8.46875 67.78125 7.648438 68.144531 7 C 68.507812 6.347656 69.339844 6.117188 70.011719 6.515625 C 70.683594 6.914062 70.882812 7.757812 70.484375 8.386719 Z M 74.964844 11.585938 C 74.496094 12.171875 73.648438 12.265625 73.070312 11.828125 C 72.492188 11.390625 72.355469 10.546875 72.789062 9.9375 C 73.222656 9.332031 74.082031 9.195312 74.707031 9.667969 C 75.328125 10.136719 75.433594 11 74.964844 11.585938 Z M 79.074219 15.265625 C 78.542969 15.792969 77.6875 15.796875 77.160156 15.296875 C 76.632812 14.796875 76.589844 13.945312 77.089844 13.386719 C 77.589844 12.828125 78.457031 12.789062 79.027344 13.324219 C 79.59375 13.863281 79.601562 14.734375 79.074219 15.265625 Z M 82.757812 19.367188 C 82.171875 19.835938 81.320312 19.746094 80.851562 19.191406 C 80.382812 18.640625 80.429688 17.785156 80.988281 17.285156 C 81.546875 16.785156 82.414062 16.839844 82.921875 17.4375 C 83.425781 18.035156 83.339844 18.898438 82.757812 19.367188 Z M 85.960938 23.84375 C 85.328125 24.246094 84.496094 24.0625 84.089844 23.460938 C 83.6875 22.863281 83.828125 22.019531 84.4375 21.585938 C 85.046875 21.148438 85.902344 21.300781 86.335938 21.949219 C 86.773438 22.597656 86.589844 23.445312 85.960938 23.84375 Z M 88.628906 28.640625 C 87.960938 28.964844 87.15625 28.6875 86.824219 28.046875 C 86.492188 27.410156 86.726562 26.59375 87.378906 26.230469 C 88.03125 25.867188 88.859375 26.109375 89.21875 26.804688 C 89.578125 27.496094 89.300781 28.316406 88.628906 28.640625 Z M 90.714844 33.699219 C 90.011719 33.941406 89.25 33.570312 88.996094 32.902344 C 88.742188 32.230469 89.070312 31.449219 89.761719 31.164062 C 90.449219 30.882812 91.242188 31.222656 91.515625 31.953125 C 91.789062 32.679688 91.417969 33.460938 90.714844 33.699219 Z M 92.160156 38.972656 C 91.429688 39.121094 90.722656 38.660156 90.554688 37.964844 C 90.390625 37.269531 90.8125 36.535156 91.527344 36.339844 C 92.242188 36.144531 92.988281 36.578125 93.171875 37.335938 C 93.355469 38.097656 92.886719 38.820312 92.160156 38.972656 Z M 92.910156 44.402344 C 92.160156 44.453125 91.519531 43.898438 91.445312 43.1875 C 91.375 42.472656 91.890625 41.800781 92.628906 41.699219 C 93.363281 41.597656 94.050781 42.125 94.132812 42.90625 C 94.214844 43.6875 93.65625 44.347656 92.910156 44.402344 Z M 92.910156 44.402344 " fill-opacity="1" fill-rule="nonzero"/></g></svg>