<svg xmlns="http://www.w3.org/2000/svg" xmlns:xlink="http://www.w3.org/1999/xlink" width="16" zoomAndPan="magnify" viewBox="0 0 12 16.5" height="22" preserveAspectRatio="xMidYMid meet" version="1.0"><defs><filter x="0%" y="0%" width="100%" height="100%" id="c2bf6ed8ae"><feColorMatrix values="0 0 0 0 1 0 0 0 0 1 0 0 0 0 1 0 0 0 1 0" color-interpolation-filters="sRGB"/></filter><clipPath id="d70c25f35a"><path d="M 0.175781 0 L 11.824219 0 L 11.824219 16.015625 L 0.175781 16.015625 Z M 0.175781 0 " clip-rule="nonzero"/></clipPath><mask id="0ee698c596"><g filter="url(#c2bf6ed8ae)"><rect x="-1.2" width="14.4" fill="#000000" y="-1.65" height="19.799999" fill-opacity="0.8"/></g></mask><clipPath id="2513160762"><path d="M 0.175781 7 L 11.824219 7 L 11.824219 16 L 0.175781 16 Z M 0.175781 7 " clip-rule="nonzero"/></clipPath><clipPath id="1878ed41ce"><rect x="0" width="12" y="0" height="17"/></clipPath></defs><g clip-path="url(#d70c25f35a)"><g mask="url(#0ee698c596)"><g transform="matrix(1, 0, 0, 1, 0.000000000000000028, 0)"><g clip-path="url(#1878ed41ce)"><path fill="#573721" d="M 9.34375 3.351562 C 9.34375 1.503906 7.839844 0 5.996094 0 C 4.148438 0 2.644531 1.503906 2.644531 3.351562 C 2.644531 5.191406 4.148438 6.695312 5.996094 6.695312 C 7.839844 6.695312 9.34375 5.191406 9.34375 3.351562 Z M 9.34375 3.351562 " fill-opacity="1" fill-rule="nonzero"/><g clip-path="url(#2513160762)"><path fill="#573721" d="M 0.175781 12.902344 L 0.175781 13.914062 C 0.175781 14.890625 0.972656 15.683594 1.945312 15.683594 L 10.042969 15.683594 C 11.019531 15.683594 11.8125 14.890625 11.8125 13.914062 L 11.8125 12.902344 C 11.8125 9.695312 9.203125 7.082031 5.996094 7.082031 C 2.785156 7.082031 0.175781 9.695312 0.175781 12.902344 Z M 0.175781 12.902344 " fill-opacity="1" fill-rule="nonzero"/></g></g></g></g></g></svg>