<svg xmlns="http://www.w3.org/2000/svg" xmlns:xlink="http://www.w3.org/1999/xlink" width="20" zoomAndPan="magnify" viewBox="0 0 14.88 19.5" height="26" preserveAspectRatio="xMidYMid meet" version="1.0"><defs><filter x="0%" y="0%" width="100%" height="100%" id="3107667127"><feColorMatrix values="0 0 0 0 1 0 0 0 0 1 0 0 0 0 1 0 0 0 1 0" color-interpolation-filters="sRGB"/></filter><clipPath id="5ed740bfe2"><path d="M 0.128906 0 L 14.636719 0 L 14.636719 19.011719 L 0.128906 19.011719 Z M 0.128906 0 " clip-rule="nonzero"/></clipPath><mask id="a8f1969716"><g filter="url(#3107667127)"><rect x="-1.488" width="17.856" fill="#000000" y="-1.95" height="23.4" fill-opacity="0.8"/></g></mask><clipPath id="d371f5ee48"><path d="M 0.128906 8 L 14.019531 8 L 14.019531 19 L 0.128906 19 Z M 0.128906 8 " clip-rule="nonzero"/></clipPath><clipPath id="188b84daa2"><rect x="0" width="15" y="0" height="20"/></clipPath></defs><g clip-path="url(#5ed740bfe2)"><g mask="url(#a8f1969716)"><g transform="matrix(1, 0, 0, 1, 0, -0.000000000000003458)"><g clip-path="url(#188b84daa2)"><path fill="#573721" d="M 11.171875 4.035156 C 11.171875 1.8125 9.363281 0 7.136719 0 C 4.914062 0 3.101562 1.8125 3.101562 4.035156 C 3.101562 6.253906 4.914062 8.066406 7.136719 8.066406 C 9.363281 8.066406 11.171875 6.253906 11.171875 4.035156 Z M 11.171875 4.035156 " fill-opacity="1" fill-rule="nonzero"/><g clip-path="url(#d371f5ee48)"><path fill="#573721" d="M 0.128906 15.542969 L 0.128906 16.761719 C 0.128906 17.941406 1.085938 18.898438 2.261719 18.898438 L 12.011719 18.898438 C 13.191406 18.898438 14.148438 17.941406 14.148438 16.761719 L 14.148438 15.542969 C 14.148438 11.679688 11 8.535156 7.136719 8.535156 C 3.273438 8.535156 0.128906 11.679688 0.128906 15.542969 Z M 0.128906 15.542969 " fill-opacity="1" fill-rule="nonzero"/></g></g></g></g></g></svg>