<svg xmlns="http://www.w3.org/2000/svg" xmlns:xlink="http://www.w3.org/1999/xlink" width="276" zoomAndPan="magnify" viewBox="0 0 206.87999 86.249997" height="115" preserveAspectRatio="xMidYMid meet" version="1.0"><defs><g/><clipPath id="8716c7c94e"><path d="M 132.585938 5.910156 L 205.820312 5.910156 L 205.820312 79.144531 L 132.585938 79.144531 Z M 132.585938 5.910156 " clip-rule="nonzero"/></clipPath></defs><g clip-path="url(#8716c7c94e)"><path fill="#312117" d="M 169.125 79.144531 C 189.390625 79.144531 205.820312 62.714844 205.820312 42.449219 C 205.820312 22.183594 189.390625 5.753906 169.125 5.753906 C 148.855469 5.753906 132.429688 22.183594 132.429688 42.449219 C 132.429688 62.714844 148.855469 79.144531 169.125 79.144531 Z M 154.445312 38.78125 L 174.945312 38.78125 L 169.125 32.960938 C 167.695312 31.527344 167.695312 29.203125 169.125 27.769531 C 170.554688 26.339844 172.882812 26.339844 174.3125 27.769531 L 186.398438 39.855469 C 187.832031 41.289062 187.832031 43.613281 186.398438 45.042969 L 174.3125 57.128906 C 172.882812 58.558594 170.554688 58.558594 169.125 57.128906 C 167.695312 55.695312 167.695312 53.371094 169.125 51.9375 L 174.945312 46.117188 L 154.445312 46.117188 C 152.421875 46.117188 150.777344 44.476562 150.777344 42.449219 C 150.777344 40.421875 152.421875 38.78125 154.445312 38.78125 Z M 154.445312 38.78125 " fill-opacity="1" fill-rule="nonzero"/></g><g fill="#312117" fill-opacity="1"><g transform="translate(15.282219, 58.593413)"><g><path d="M 18.140625 -9.3125 C 18.140625 -10.332031 17.757812 -11.222656 17 -11.984375 C 16.238281 -12.753906 15.328125 -13.140625 14.265625 -13.140625 L 9.828125 -13.140625 L 9.828125 -5.46875 L 14.265625 -5.46875 C 15.328125 -5.46875 16.238281 -5.84375 17 -6.59375 C 17.757812 -7.34375 18.140625 -8.25 18.140625 -9.3125 Z M 15.953125 -22.59375 C 15.953125 -23.613281 15.582031 -24.484375 14.84375 -25.203125 C 14.113281 -25.921875 13.25 -26.28125 12.25 -26.28125 L 9.828125 -26.28125 L 9.828125 -18.890625 L 12.25 -18.890625 C 13.25 -18.890625 14.113281 -19.253906 14.84375 -19.984375 C 15.582031 -20.722656 15.953125 -21.59375 15.953125 -22.59375 Z M 25.296875 -9.125 C 25.296875 -6.375 24.453125 -4.164062 22.765625 -2.5 C 21.085938 -0.832031 18.722656 0 15.671875 0 L 2.8125 0 L 2.8125 -31.796875 L 13.75 -31.796875 C 15.5625 -31.796875 17.128906 -31.4375 18.453125 -30.71875 C 19.773438 -30.007812 20.800781 -29.050781 21.53125 -27.84375 C 22.269531 -26.644531 22.640625 -25.3125 22.640625 -23.84375 C 22.640625 -22.226562 22.300781 -20.832031 21.625 -19.65625 C 20.957031 -18.488281 20.03125 -17.640625 18.84375 -17.109375 C 20.625 -16.710938 22.144531 -15.816406 23.40625 -14.421875 C 24.664062 -13.035156 25.296875 -11.269531 25.296875 -9.125 Z M 25.296875 -9.125 "/></g></g></g><g fill="#312117" fill-opacity="1"><g transform="translate(41.047761, 58.593413)"><g><path d="M 18.9375 -10.28125 C 18.9375 -11.1875 18.71875 -12.03125 18.28125 -12.8125 C 17.84375 -13.59375 17.257812 -14.222656 16.53125 -14.703125 C 15.800781 -15.191406 14.96875 -15.4375 14.03125 -15.4375 C 13.09375 -15.4375 12.253906 -15.191406 11.515625 -14.703125 C 10.785156 -14.222656 10.203125 -13.59375 9.765625 -12.8125 C 9.335938 -12.03125 9.125 -11.1875 9.125 -10.28125 C 9.125 -9.382812 9.335938 -8.546875 9.765625 -7.765625 C 10.203125 -6.984375 10.785156 -6.347656 11.515625 -5.859375 C 12.253906 -5.378906 13.09375 -5.140625 14.03125 -5.140625 C 14.96875 -5.140625 15.800781 -5.378906 16.53125 -5.859375 C 17.257812 -6.347656 17.84375 -6.984375 18.28125 -7.765625 C 18.71875 -8.546875 18.9375 -9.382812 18.9375 -10.28125 Z M 25.953125 -20.578125 L 25.953125 0 L 18.9375 0 L 18.9375 -2.484375 C 18.25 -1.421875 17.226562 -0.660156 15.875 -0.203125 C 14.519531 0.242188 13.1875 0.46875 11.875 0.46875 C 9.945312 0.46875 8.203125 -0.03125 6.640625 -1.03125 C 5.078125 -2.03125 3.851562 -3.347656 2.96875 -4.984375 C 2.082031 -6.617188 1.640625 -8.382812 1.640625 -10.28125 C 1.640625 -12.1875 2.082031 -13.957031 2.96875 -15.59375 C 3.851562 -17.226562 5.078125 -18.550781 6.640625 -19.5625 C 8.203125 -20.582031 9.945312 -21.09375 11.875 -21.09375 C 13.1875 -21.09375 14.460938 -20.875 15.703125 -20.4375 C 16.953125 -20 18.03125 -19.21875 18.9375 -18.09375 L 18.9375 -20.578125 Z M 25.953125 -20.578125 "/></g></g></g><g fill="#312117" fill-opacity="1"><g transform="translate(69.806033, 58.593413)"><g><path d="M 13.328125 -15.625 C 12.265625 -15.625 11.429688 -15.332031 10.828125 -14.75 C 10.222656 -14.175781 9.785156 -13.472656 9.515625 -12.640625 C 9.253906 -11.816406 9.125 -11.015625 9.125 -10.234375 C 9.125 -9.460938 9.25 -8.65625 9.5 -7.8125 C 9.75 -6.96875 10.175781 -6.265625 10.78125 -5.703125 C 11.382812 -5.140625 12.234375 -4.859375 13.328125 -4.859375 C 14.421875 -4.859375 15.335938 -5.09375 16.078125 -5.5625 C 16.828125 -6.03125 17.265625 -6.734375 17.390625 -7.671875 L 24.21875 -7.671875 C 24 -6.140625 23.40625 -4.757812 22.4375 -3.53125 C 21.476562 -2.300781 20.203125 -1.328125 18.609375 -0.609375 C 17.023438 0.109375 15.1875 0.46875 13.09375 0.46875 C 10.726562 0.46875 8.6875 -0.0195312 6.96875 -1 C 5.25 -1.988281 3.929688 -3.289062 3.015625 -4.90625 C 2.097656 -6.53125 1.640625 -8.320312 1.640625 -10.28125 C 1.640625 -12.25 2.113281 -14.050781 3.0625 -15.6875 C 4.007812 -17.320312 5.347656 -18.628906 7.078125 -19.609375 C 8.816406 -20.597656 10.820312 -21.09375 13.09375 -21.09375 C 15.34375 -21.09375 17.285156 -20.691406 18.921875 -19.890625 C 20.554688 -19.097656 21.847656 -18.039062 22.796875 -16.71875 C 23.742188 -15.394531 24.265625 -13.9375 24.359375 -12.34375 L 17.390625 -12.34375 C 17.359375 -13.34375 16.976562 -14.140625 16.25 -14.734375 C 15.519531 -15.328125 14.546875 -15.625 13.328125 -15.625 Z M 13.328125 -15.625 "/></g></g></g><g fill="#312117" fill-opacity="1"><g transform="translate(95.618344, 58.593413)"><g><path d="M 9.828125 -9.125 L 9.828125 0 L 2.8125 0 L 2.8125 -35.078125 L 9.828125 -35.078125 L 9.828125 -12.4375 L 16.421875 -20.625 L 25.109375 -20.625 L 16.234375 -10.796875 L 26.046875 0 L 17.0625 0 Z M 9.828125 -9.125 "/></g></g></g></svg>