<svg xmlns="http://www.w3.org/2000/svg" xmlns:xlink="http://www.w3.org/1999/xlink" width="99" zoomAndPan="magnify" viewBox="0 0 74.25 74.249997" height="99" preserveAspectRatio="xMidYMid meet" version="1.0"><defs><clipPath id="b10777163a"><path d="M 0 0 L 73.285156 0 L 73.285156 73.285156 L 0 73.285156 Z M 0 0 " clip-rule="nonzero"/></clipPath></defs><g clip-path="url(#b10777163a)"><path fill="#312117" d="M 36.644531 73.285156 C 56.882812 73.285156 73.285156 56.882812 73.285156 36.644531 C 73.285156 16.40625 56.882812 0 36.644531 0 C 16.40625 0 0 16.40625 0 36.644531 C 0 56.882812 16.40625 73.285156 36.644531 73.285156 Z M 21.984375 32.980469 L 42.457031 32.980469 L 36.644531 27.167969 C 35.214844 25.738281 35.214844 23.414062 36.644531 21.984375 C 38.074219 20.558594 40.394531 20.558594 41.824219 21.984375 L 53.890625 34.054688 C 55.324219 35.484375 55.324219 37.804688 53.890625 39.234375 L 41.824219 51.300781 C 40.394531 52.730469 38.074219 52.730469 36.644531 51.300781 C 35.214844 49.871094 35.214844 47.546875 36.644531 46.121094 L 42.457031 40.308594 L 21.984375 40.308594 C 19.964844 40.308594 18.320312 38.667969 18.320312 36.644531 C 18.320312 34.621094 19.964844 32.980469 21.984375 32.980469 Z M 21.984375 32.980469 " fill-opacity="1" fill-rule="nonzero"/></g></svg>