<svg xmlns="http://www.w3.org/2000/svg" xmlns:xlink="http://www.w3.org/1999/xlink" width="29" zoomAndPan="magnify" viewBox="0 0 21.75 25.5" height="34" preserveAspectRatio="xMidYMid meet" version="1.0"><defs><clipPath id="4bb297d246"><path d="M 0.0859375 0 L 20 0 L 20 14 L 0.0859375 14 Z M 0.0859375 0 " clip-rule="nonzero"/></clipPath><clipPath id="6874adb741"><path d="M 1 11 L 21.417969 11 L 21.417969 25 L 1 25 Z M 1 11 " clip-rule="nonzero"/></clipPath></defs><g clip-path="url(#4bb297d246)"><path fill="#3d2413" d="M 2.257812 12.335938 C 2.417969 7.957031 5.820312 5.578125 9.925781 5.578125 C 11.3125 5.578125 12.695312 5.578125 14.082031 5.578125 C 13.429688 5.90625 12.773438 6.234375 12.121094 6.566406 C 10.902344 7.183594 11.976562 9.011719 13.191406 8.398438 C 15.152344 7.410156 17.109375 6.421875 19.070312 5.433594 C 19.761719 5.082031 19.761719 3.949219 19.070312 3.601562 C 17.109375 2.613281 15.152344 1.621094 13.191406 0.632812 C 11.976562 0.0195312 10.902344 1.847656 12.121094 2.464844 C 12.773438 2.796875 13.429688 3.125 14.082031 3.457031 C 12.394531 3.457031 10.703125 3.457031 9.015625 3.457031 C 4.050781 3.457031 0.3125 7.507812 0.136719 12.335938 C 0.0859375 13.703125 2.207031 13.699219 2.257812 12.335938 " fill-opacity="1" fill-rule="nonzero"/></g><g clip-path="url(#6874adb741)"><path fill="#3d2413" d="M 19.117188 12.335938 C 18.957031 16.714844 15.554688 19.09375 11.445312 19.09375 C 10.0625 19.09375 8.675781 19.09375 7.292969 19.09375 C 7.945312 18.761719 8.597656 18.433594 9.25 18.105469 C 10.472656 17.488281 9.398438 15.65625 8.179688 16.273438 C 6.222656 17.261719 4.265625 18.25 2.304688 19.238281 C 1.613281 19.585938 1.613281 20.71875 2.304688 21.070312 C 4.265625 22.058594 6.222656 23.046875 8.179688 24.035156 C 9.398438 24.652344 10.472656 22.820312 9.25 22.203125 C 8.597656 21.875 7.945312 21.542969 7.292969 21.214844 C 8.980469 21.214844 10.671875 21.214844 12.359375 21.214844 C 17.324219 21.214844 21.0625 17.160156 21.238281 12.335938 C 21.289062 10.964844 19.167969 10.972656 19.117188 12.335938 " fill-opacity="1" fill-rule="nonzero"/></g></svg>