<svg xmlns="http://www.w3.org/2000/svg" xmlns:xlink="http://www.w3.org/1999/xlink" width="23" zoomAndPan="magnify" viewBox="0 0 17.25 12.75" height="17" preserveAspectRatio="xMidYMid meet" version="1.0"><defs><filter x="0%" y="0%" width="100%" height="100%" id="fa45ed0578"><feColorMatrix values="0 0 0 0 1 0 0 0 0 1 0 0 0 0 1 0 0 0 1 0" color-interpolation-filters="sRGB"/></filter><clipPath id="20ad11dc50"><path d="M 0 0.144531 L 16.53125 0.144531 L 16.53125 12.363281 L 0 12.363281 Z M 0 0.144531 " clip-rule="nonzero"/></clipPath><mask id="4e7990c637"><g filter="url(#fa45ed0578)"><rect x="-1.725" width="20.7" fill="#000000" y="-1.275" height="15.3" fill-opacity="0.8"/></g></mask><clipPath id="1226ab2eb1"><path d="M 0 0.941406 L 15.8125 0.941406 L 15.8125 8 L 0 8 Z M 0 0.941406 " clip-rule="nonzero"/></clipPath><clipPath id="f3fd2fac3f"><path d="M 0 2 L 15.8125 2 L 15.8125 12.363281 L 0 12.363281 Z M 0 2 " clip-rule="nonzero"/></clipPath><clipPath id="2d23c8ca8c"><rect x="0" width="17" y="0" height="13"/></clipPath></defs><g clip-path="url(#20ad11dc50)"><g mask="url(#4e7990c637)"><g transform="matrix(1, 0, 0, 1, 0, -0.000000000000003109)"><g clip-path="url(#2d23c8ca8c)"><g clip-path="url(#1226ab2eb1)"><path fill="#573721" d="M 6.953125 6.839844 C 7.261719 7.078125 7.613281 7.195312 8 7.195312 C 8.390625 7.195312 8.738281 7.078125 9.046875 6.839844 L 15.683594 1.667969 C 15.34375 1.183594 14.875 0.941406 14.285156 0.941406 L 1.71875 0.941406 C 1.425781 0.941406 1.148438 1.015625 0.890625 1.160156 C 0.632812 1.304688 0.425781 1.5 0.269531 1.753906 Z M 6.953125 6.839844 " fill-opacity="1" fill-rule="nonzero"/></g><g clip-path="url(#f3fd2fac3f)"><path fill="#573721" d="M 9.746094 7.746094 C 9.496094 7.9375 9.222656 8.082031 8.921875 8.183594 C 8.625 8.285156 8.320312 8.335938 8.003906 8.335938 C 7.6875 8.335938 7.382812 8.285156 7.085938 8.183594 C 6.785156 8.082031 6.511719 7.9375 6.261719 7.746094 L 0.0078125 2.988281 L 0.0078125 10.648438 C 0.0078125 10.878906 0.0507812 11.097656 0.136719 11.304688 C 0.222656 11.515625 0.347656 11.699219 0.507812 11.863281 C 0.667969 12.023438 0.855469 12.144531 1.0625 12.234375 C 1.273438 12.320312 1.492188 12.363281 1.71875 12.363281 L 14.285156 12.363281 C 14.511719 12.363281 14.730469 12.320312 14.9375 12.234375 C 15.148438 12.144531 15.335938 12.023438 15.496094 11.863281 C 15.65625 11.699219 15.78125 11.515625 15.867188 11.304688 C 15.953125 11.097656 15.996094 10.878906 15.996094 10.648438 L 15.996094 2.875 Z M 9.746094 7.746094 " fill-opacity="1" fill-rule="nonzero"/></g></g></g></g></g></svg>