<svg xmlns="http://www.w3.org/2000/svg" xmlns:xlink="http://www.w3.org/1999/xlink" width="16" zoomAndPan="magnify" viewBox="0 0 12 16.5" height="22" preserveAspectRatio="xMidYMid meet" version="1.0"><defs><filter x="0%" y="0%" width="100%" height="100%" id="45eea40b2e"><feColorMatrix values="0 0 0 0 1 0 0 0 0 1 0 0 0 0 1 0 0 0 1 0" color-interpolation-filters="sRGB"/></filter><clipPath id="aa5af5e724"><path d="M 0.175781 0 L 11.824219 0 L 11.824219 16 L 0.175781 16 Z M 0.175781 0 " clip-rule="nonzero"/></clipPath><mask id="fccf28cad2"><g filter="url(#45eea40b2e)"><rect x="-1.2" width="14.4" fill="#000000" y="-1.65" height="19.799999" fill-opacity="0.8"/></g></mask><clipPath id="d99436e46b"><path d="M 0.175781 0.308594 L 11.09375 0.308594 L 11.09375 15.375 L 0.175781 15.375 Z M 0.175781 0.308594 " clip-rule="nonzero"/></clipPath><clipPath id="b45fb56454"><rect x="0" width="12" y="0" height="16"/></clipPath></defs><g clip-path="url(#aa5af5e724)"><g mask="url(#fccf28cad2)"><g transform="matrix(1, 0, 0, 1, 0.000000000000000028, 0)"><g clip-path="url(#b45fb56454)"><g clip-path="url(#d99436e46b)"><path fill="#573721" d="M 5.636719 2.046875 C 6.9375 2.046875 7.988281 3.097656 7.988281 4.398438 L 7.988281 6.757812 L 3.28125 6.757812 L 3.28125 4.398438 C 3.28125 3.097656 4.335938 2.046875 5.636719 2.046875 Z M 9.699219 6.773438 L 9.699219 4.382812 C 9.699219 2.136719 7.878906 0.316406 5.636719 0.316406 C 3.390625 0.316406 1.570312 2.136719 1.570312 4.382812 L 1.570312 6.773438 C 0.785156 6.882812 0.175781 7.554688 0.175781 8.375 L 0.175781 13.753906 C 0.175781 14.648438 0.898438 15.371094 1.792969 15.371094 L 9.480469 15.371094 C 10.371094 15.371094 11.09375 14.648438 11.09375 13.753906 L 11.09375 8.375 C 11.09375 7.554688 10.488281 6.882812 9.699219 6.773438 " fill-opacity="1" fill-rule="nonzero"/></g></g></g></g></g></svg>