<svg xmlns="http://www.w3.org/2000/svg" xmlns:xlink="http://www.w3.org/1999/xlink" width="114" zoomAndPan="magnify" viewBox="0 0 85.5 85.499997" height="114" preserveAspectRatio="xMidYMid meet" version="1.0"><defs><clipPath id="5461f80382"><path d="M 0 0 L 84.421875 0 L 84.421875 84.421875 L 0 84.421875 Z M 0 0 " clip-rule="nonzero"/></clipPath><clipPath id="b949abf024"><path d="M 42.210938 0 C 18.898438 0 0 18.898438 0 42.210938 C 0 65.523438 18.898438 84.421875 42.210938 84.421875 C 65.523438 84.421875 84.421875 65.523438 84.421875 42.210938 C 84.421875 18.898438 65.523438 0 42.210938 0 Z M 42.210938 0 " clip-rule="nonzero"/></clipPath><clipPath id="c67b220056"><path d="M 14.078125 14.078125 L 70 14.078125 L 70 70 L 14.078125 70 Z M 14.078125 14.078125 " clip-rule="nonzero"/></clipPath><clipPath id="9ab34fc5ef"><path d="M 25 14.078125 L 54 14.078125 L 54 34 L 25 34 Z M 25 14.078125 " clip-rule="nonzero"/></clipPath><clipPath id="7de22c56a0"><path d="M 25 44 L 60 44 L 60 70 L 25 70 Z M 25 44 " clip-rule="nonzero"/></clipPath></defs><g clip-path="url(#5461f80382)"><g clip-path="url(#b949abf024)"><path fill="#3d2413" d="M 0 0 L 84.421875 0 L 84.421875 84.421875 L 0 84.421875 Z M 0 0 " fill-opacity="1" fill-rule="nonzero"/></g></g><g clip-path="url(#c67b220056)"><path fill="#ffffff" d="M 61.386719 70.339844 L 23.027344 70.339844 C 22.441406 70.339844 21.859375 70.28125 21.28125 70.167969 C 20.707031 70.050781 20.144531 69.882812 19.601562 69.65625 C 19.058594 69.433594 18.542969 69.15625 18.054688 68.828125 C 17.566406 68.503906 17.113281 68.132812 16.699219 67.714844 C 16.285156 67.300781 15.914062 66.847656 15.585938 66.359375 C 15.257812 65.871094 14.984375 65.355469 14.757812 64.8125 C 14.535156 64.269531 14.363281 63.710938 14.25 63.132812 C 14.136719 62.558594 14.078125 61.976562 14.078125 61.386719 L 14.078125 23.027344 C 14.078125 22.441406 14.136719 21.859375 14.25 21.28125 C 14.363281 20.707031 14.535156 20.144531 14.757812 19.601562 C 14.984375 19.058594 15.257812 18.542969 15.585938 18.054688 C 15.914062 17.566406 16.285156 17.113281 16.699219 16.699219 C 17.113281 16.285156 17.566406 15.914062 18.054688 15.585938 C 18.542969 15.257812 19.058594 14.984375 19.601562 14.757812 C 20.144531 14.535156 20.707031 14.363281 21.28125 14.25 C 21.859375 14.136719 22.441406 14.078125 23.027344 14.078125 L 57.730469 14.078125 C 58.117188 14.082031 58.441406 14.226562 58.703125 14.511719 L 70.03125 27.296875 C 70.238281 27.542969 70.339844 27.824219 70.339844 28.144531 L 70.339844 61.386719 C 70.339844 61.976562 70.28125 62.558594 70.167969 63.132812 C 70.050781 63.710938 69.882812 64.269531 69.65625 64.8125 C 69.433594 65.355469 69.15625 65.871094 68.828125 66.359375 C 68.503906 66.847656 68.132812 67.300781 67.714844 67.714844 C 67.300781 68.132812 66.847656 68.503906 66.359375 68.828125 C 65.871094 69.15625 65.355469 69.433594 64.8125 69.65625 C 64.269531 69.882812 63.710938 70.050781 63.132812 70.167969 C 62.558594 70.28125 61.976562 70.339844 61.386719 70.339844 Z M 23.027344 16.636719 C 22.609375 16.636719 22.191406 16.675781 21.78125 16.757812 C 21.367188 16.839844 20.96875 16.960938 20.582031 17.121094 C 20.195312 17.28125 19.824219 17.480469 19.476562 17.710938 C 19.128906 17.945312 18.804688 18.210938 18.507812 18.507812 C 18.210938 18.804688 17.945312 19.128906 17.710938 19.476562 C 17.480469 19.824219 17.28125 20.195312 17.121094 20.582031 C 16.960938 20.96875 16.839844 21.367188 16.757812 21.78125 C 16.675781 22.191406 16.636719 22.609375 16.636719 23.027344 L 16.636719 61.386719 C 16.636719 61.808594 16.675781 62.222656 16.757812 62.636719 C 16.839844 63.046875 16.960938 63.445312 17.121094 63.835938 C 17.28125 64.222656 17.480469 64.589844 17.710938 64.941406 C 17.945312 65.289062 18.210938 65.613281 18.507812 65.910156 C 18.804688 66.207031 19.128906 66.46875 19.476562 66.703125 C 19.824219 66.9375 20.195312 67.132812 20.582031 67.292969 C 20.96875 67.453125 21.367188 67.578125 21.78125 67.65625 C 22.191406 67.738281 22.609375 67.78125 23.027344 67.78125 L 61.386719 67.78125 C 61.808594 67.78125 62.222656 67.738281 62.636719 67.65625 C 63.046875 67.578125 63.445312 67.453125 63.835938 67.292969 C 64.222656 67.132812 64.589844 66.9375 64.941406 66.703125 C 65.289062 66.46875 65.613281 66.207031 65.910156 65.910156 C 66.207031 65.613281 66.46875 65.289062 66.703125 64.941406 C 66.9375 64.589844 67.132812 64.222656 67.292969 63.835938 C 67.453125 63.445312 67.578125 63.046875 67.65625 62.636719 C 67.738281 62.222656 67.78125 61.808594 67.78125 61.386719 L 67.78125 28.679688 L 57.144531 16.636719 Z M 23.027344 16.636719 " fill-opacity="1" fill-rule="nonzero"/></g><g clip-path="url(#9ab34fc5ef)"><path fill="#ffffff" d="M 51.898438 33.4375 L 26.328125 33.4375 C 26.160156 33.433594 25.996094 33.398438 25.839844 33.332031 C 25.6875 33.265625 25.550781 33.171875 25.429688 33.054688 C 25.3125 32.933594 25.21875 32.796875 25.152344 32.644531 C 25.085938 32.488281 25.050781 32.328125 25.046875 32.15625 L 25.046875 15.355469 C 25.046875 15.1875 25.082031 15.023438 25.144531 14.867188 C 25.210938 14.710938 25.304688 14.570312 25.421875 14.453125 C 25.542969 14.332031 25.679688 14.238281 25.835938 14.175781 C 25.996094 14.109375 26.15625 14.078125 26.328125 14.078125 L 51.898438 14.078125 C 52.070312 14.078125 52.234375 14.109375 52.390625 14.175781 C 52.546875 14.238281 52.683594 14.332031 52.804688 14.453125 C 52.925781 14.570312 53.015625 14.710938 53.082031 14.867188 C 53.144531 15.023438 53.179688 15.1875 53.179688 15.355469 L 53.179688 32.15625 C 53.179688 32.328125 53.144531 32.492188 53.082031 32.648438 C 53.015625 32.804688 52.925781 32.941406 52.804688 33.0625 C 52.683594 33.183594 52.546875 33.273438 52.390625 33.339844 C 52.234375 33.402344 52.070312 33.4375 51.898438 33.4375 Z M 27.632812 30.878906 L 50.648438 30.878906 L 50.648438 16.636719 L 27.632812 16.636719 Z M 27.632812 30.878906 " fill-opacity="1" fill-rule="nonzero"/></g><g clip-path="url(#7de22c56a0)"><path fill="#ffffff" d="M 58.0625 70.339844 L 26.351562 70.339844 C 26.183594 70.339844 26.019531 70.304688 25.863281 70.242188 C 25.707031 70.175781 25.570312 70.082031 25.449219 69.964844 C 25.328125 69.84375 25.234375 69.707031 25.171875 69.550781 C 25.105469 69.390625 25.074219 69.230469 25.074219 69.058594 L 25.074219 45.660156 C 25.074219 45.492188 25.105469 45.328125 25.171875 45.171875 C 25.234375 45.015625 25.328125 44.875 25.449219 44.757812 C 25.570312 44.636719 25.707031 44.542969 25.863281 44.480469 C 26.019531 44.414062 26.183594 44.382812 26.351562 44.382812 L 58.0625 44.382812 C 58.234375 44.382812 58.394531 44.414062 58.550781 44.480469 C 58.710938 44.542969 58.847656 44.636719 58.96875 44.757812 C 59.085938 44.875 59.179688 45.015625 59.246094 45.171875 C 59.308594 45.328125 59.34375 45.492188 59.34375 45.660156 L 59.34375 69.058594 C 59.34375 69.230469 59.308594 69.390625 59.246094 69.550781 C 59.179688 69.707031 59.085938 69.84375 58.96875 69.964844 C 58.847656 70.082031 58.710938 70.175781 58.550781 70.242188 C 58.394531 70.304688 58.234375 70.339844 58.0625 70.339844 Z M 27.632812 67.78125 L 56.785156 67.78125 L 56.785156 46.9375 L 27.632812 46.9375 Z M 27.632812 67.78125 " fill-opacity="1" fill-rule="nonzero"/></g><path fill="#ffffff" d="M 45.660156 27.632812 C 45.492188 27.632812 45.328125 27.597656 45.171875 27.535156 C 45.015625 27.46875 44.875 27.375 44.757812 27.257812 C 44.636719 27.136719 44.542969 27 44.480469 26.84375 C 44.414062 26.683594 44.382812 26.523438 44.382812 26.351562 L 44.382812 21.238281 C 44.382812 21.070312 44.414062 20.90625 44.480469 20.75 C 44.542969 20.59375 44.636719 20.453125 44.757812 20.332031 C 44.875 20.214844 45.015625 20.121094 45.171875 20.058594 C 45.328125 19.992188 45.492188 19.960938 45.660156 19.960938 C 45.828125 19.960938 45.992188 19.992188 46.148438 20.058594 C 46.304688 20.121094 46.445312 20.214844 46.5625 20.332031 C 46.683594 20.453125 46.777344 20.59375 46.839844 20.75 C 46.90625 20.90625 46.9375 21.070312 46.9375 21.238281 L 46.9375 26.351562 C 46.9375 26.519531 46.902344 26.683594 46.835938 26.839844 C 46.769531 26.992188 46.675781 27.128906 46.558594 27.25 C 46.4375 27.367188 46.300781 27.460938 46.144531 27.527344 C 45.992188 27.59375 45.828125 27.628906 45.660156 27.632812 Z M 45.660156 27.632812 " fill-opacity="1" fill-rule="nonzero"/></svg>